<svg width="40" height="41" viewBox="0 0 40 41" fill="none" xmlns="http://www.w3.org/2000/svg">
<path d="M20.0008 9.73062C17.9695 9.73062 15.9839 10.333 14.295 11.4615C12.606 12.59 11.2897 14.1939 10.5124 16.0706C9.73504 17.9472 9.53166 20.0122 9.92793 22.0044C10.3242 23.9966 11.3024 25.8266 12.7387 27.2629C14.175 28.6992 16.0049 29.6774 17.9972 30.0736C19.9894 30.4699 22.0544 30.2665 23.931 29.4892C25.8076 28.7119 27.4116 27.3955 28.5401 25.7066C29.6686 24.0177 30.271 22.0321 30.271 20.0008C30.271 18.6521 30.0054 17.3166 29.4892 16.0705C28.9731 14.8245 28.2166 13.6923 27.2629 12.7386C26.3093 11.7849 25.1771 11.0285 23.931 10.5123C22.685 9.99622 21.3495 9.7306 20.0008 9.73062V9.73062ZM20.0008 26.6682C18.6821 26.6682 17.393 26.2772 16.2965 25.5445C15.2001 24.8119 14.3455 23.7706 13.8409 22.5522C13.3362 21.3339 13.2042 19.9933 13.4615 18.6999C13.7187 17.4066 14.3537 16.2186 15.2862 15.2861C16.2187 14.3537 17.4067 13.7186 18.7001 13.4614C19.9934 13.2041 21.3341 13.3362 22.5524 13.8408C23.7707 14.3455 24.812 15.2001 25.5446 16.2965C26.2772 17.393 26.6683 18.6821 26.6683 20.0008C26.6684 20.8764 26.496 21.7435 26.1609 22.5524C25.8259 23.3614 25.3348 24.0965 24.7156 24.7156C24.0965 25.3348 23.3614 25.8259 22.5524 26.1609C21.7434 26.4959 20.8764 26.6683 20.0008 26.6682V26.6682Z" fill="#1A3263"/>
<path d="M39.8805 11.7548C39.8477 10.0957 39.5336 8.45415 38.9515 6.90013C38.4484 5.56585 37.6612 4.3569 36.6445 3.35707C35.6461 2.33932 34.4375 1.55195 33.1031 1.05004C31.5491 0.467585 29.9075 0.15346 28.2483 0.121085C26.1157 0.0240009 25.434 0 20.0024 0C14.5709 0 13.8886 0.0225208 11.7548 0.121085C10.0957 0.153871 8.45415 0.467982 6.90013 1.05004C5.56547 1.55241 4.35638 2.3397 3.35707 3.35707C2.33876 4.35559 1.55137 5.56491 1.05018 6.90013C0.468129 8.45416 0.154018 10.0957 0.121225 11.7548C0.022641 13.8874 0 14.5692 0 20.0008C0 25.4323 0.0226409 26.1141 0.121185 28.2466C0.153984 29.9058 0.468108 31.5474 1.05018 33.1014C1.55151 34.4366 2.33888 35.6459 3.35707 36.6445C4.35687 37.6612 5.56583 38.4484 6.90013 38.9514C8.45421 39.5332 10.0957 39.8474 11.7548 39.8804C13.8886 39.9774 14.5692 40.0016 20.0008 40.0016C25.4323 40.0016 26.1142 39.9789 28.2467 39.8804C29.9059 39.8476 31.5474 39.5334 33.1014 38.9514C34.4303 38.4376 35.6371 37.6519 36.6445 36.6445C37.6519 35.6371 38.4377 34.4303 38.9515 33.1014C39.5342 31.5475 39.8484 29.9059 39.8805 28.2466C39.9775 26.1125 40 25.4323 40 20.0008C40 14.5692 39.9775 13.8874 39.8805 11.7548ZM36.2823 28.0836C36.2669 29.3519 36.0342 30.6082 35.5943 31.7979C35.2614 32.6604 34.7516 33.4437 34.0977 34.0973C33.4438 34.7509 32.6603 35.2603 31.7977 35.5929C30.6082 36.0338 29.3518 36.2665 28.0833 36.2809C25.9751 36.3778 25.3419 36.3972 20.0007 36.3972C14.6594 36.3972 14.028 36.3778 11.9203 36.2809C10.6519 36.2664 9.39549 36.0336 8.20604 35.5929C7.3373 35.2718 6.55129 34.7607 5.90547 34.0968C5.24062 33.4525 4.72931 32.6668 4.40941 31.7979C3.96844 30.6085 3.7357 29.352 3.72138 28.0836C3.62438 25.9754 3.60508 25.3421 3.60508 20.0009C3.60508 14.6597 3.62606 14.0282 3.72138 11.9182C3.73736 10.65 3.97006 9.39384 4.40941 8.20406C4.73045 7.33531 5.2416 6.5493 5.90547 5.90349C6.55016 5.23826 7.3365 4.7269 8.20604 4.40743C9.39545 3.96652 10.6519 3.73377 11.9203 3.7194C14.0286 3.62242 14.6618 3.6031 20.0007 3.6031C25.3395 3.6031 25.9733 3.62408 28.0833 3.7194C29.3516 3.73538 30.6078 3.96808 31.7977 4.40743C32.6606 4.73995 33.4443 5.24959 34.0982 5.90352C34.7521 6.55744 35.2618 7.34114 35.5943 8.20408C36.0352 9.39344 36.268 10.6499 36.2823 11.9182C36.3793 14.0283 36.3986 14.6598 36.3986 20.0009C36.3986 25.3421 36.3794 25.9736 36.2824 28.0836H36.2823Z" fill="#1A3263"/>
<path d="M30.6784 6.92429H30.6776C30.0412 6.9244 29.4309 7.17731 28.9809 7.62737C28.531 8.07743 28.2783 8.68778 28.2783 9.32418C28.2784 9.96057 28.5312 10.5709 28.9812 11.0209C29.4313 11.4708 30.0416 11.7236 30.678 11.7236C31.3144 11.7236 31.9247 11.4708 32.3747 11.0209C32.8248 10.5709 33.0776 9.96057 33.0777 9.32418C33.0777 8.68778 32.825 8.07743 32.3751 7.62737C31.9251 7.17731 31.3148 6.9244 30.6784 6.92429Z" fill="#1A3263"/>
</svg>

