<svg width="40" height="41" viewBox="0 0 40 41" fill="none" xmlns="http://www.w3.org/2000/svg">
<path d="M29.7251 13.9417C28.0526 13.941 26.406 14.3547 24.9324 15.1458C24.798 14.7917 24.5589 14.4868 24.2471 14.2717C23.9352 14.0566 23.5653 13.9416 23.1865 13.9417H15.7138C15.4684 13.9416 15.2254 13.9898 14.9987 14.0836C14.772 14.1775 14.566 14.3151 14.3925 14.4886C14.219 14.6621 14.0814 14.8681 13.9876 15.0948C13.8937 15.3215 13.8455 15.5645 13.8456 15.8099V38.2279C13.8455 38.4733 13.8937 38.7163 13.9876 38.943C14.0814 39.1697 14.219 39.3757 14.3925 39.5492C14.566 39.7227 14.772 39.8603 14.9987 39.9542C15.2254 40.048 15.4684 40.0962 15.7138 40.0961H23.1865C23.4319 40.0962 23.6748 40.048 23.9016 39.9542C24.1283 39.8603 24.3343 39.7227 24.5078 39.5492C24.6813 39.3757 24.8189 39.1697 24.9127 38.943C25.0066 38.7163 25.0548 38.4733 25.0547 38.2279V27.953C25.0547 27.4575 25.2515 26.9823 25.6018 26.632C25.9522 26.2816 26.4274 26.0848 26.9228 26.0848C27.4183 26.0848 27.8935 26.2816 28.2438 26.632C28.5942 26.9823 28.791 27.4575 28.791 27.953V38.2279C28.7908 38.4733 28.8391 38.7163 28.9329 38.943C29.0267 39.1697 29.1643 39.3757 29.3378 39.5492C29.5113 39.7227 29.7174 39.8603 29.9441 39.9542C30.1708 40.048 30.4138 40.0962 30.6592 40.0961H38.1318C38.3772 40.0962 38.6202 40.048 38.8469 39.9542C39.0736 39.8603 39.2796 39.7227 39.4531 39.5492C39.6266 39.3757 39.7643 39.1697 39.8581 38.943C39.9519 38.7163 40.0001 38.4733 40 38.2279V24.2166C39.9966 21.4926 38.913 18.8811 36.9868 16.9549C35.0606 15.0287 32.4491 13.9451 29.7251 13.9417V13.9417ZM36.2637 36.3597H32.5273V27.953C32.5273 26.4666 31.9369 25.041 30.8858 23.99C29.8348 22.939 28.4092 22.3485 26.9228 22.3485C25.4364 22.3485 24.0109 22.939 22.9598 23.99C21.9088 25.041 21.3183 26.4666 21.3183 27.953V36.3597H17.582V17.6781H21.3183V18.9916C21.3185 19.3787 21.4389 19.7562 21.6629 20.0719C21.8869 20.3876 22.2033 20.626 22.5686 20.7542C22.9338 20.8823 23.3298 20.8939 23.702 20.7874C24.0741 20.6808 24.404 20.4613 24.646 20.1592C25.4844 19.0944 26.6343 18.318 27.9353 17.9384C29.2363 17.5588 30.6234 17.595 31.9028 18.0418C33.1823 18.4887 34.2903 19.3239 35.0721 20.4309C35.8539 21.5379 36.2705 22.8614 36.2637 24.2166V36.3597ZM10.1093 13.9417H2.63664C2.39126 13.9416 2.14827 13.9898 1.92155 14.0836C1.69483 14.1775 1.48883 14.3151 1.31533 14.4886C1.14183 14.6621 1.00422 14.8681 0.910388 15.0948C0.816553 15.3215 0.768327 15.5645 0.768467 15.8099V38.2279C0.768325 38.4733 0.816549 38.7163 0.910383 38.943C1.00422 39.1697 1.14182 39.3757 1.31532 39.5492C1.48883 39.7227 1.69483 39.8603 1.92155 39.9542C2.14827 40.048 2.39126 40.0962 2.63664 40.0961H10.1093C10.3547 40.0962 10.5977 40.048 10.8244 39.9542C11.0511 39.8603 11.2571 39.7227 11.4306 39.5492C11.6041 39.3757 11.7417 39.1697 11.8356 38.943C11.9294 38.7163 11.9776 38.4733 11.9775 38.2279V15.8099C11.9776 15.5645 11.9294 15.3215 11.8356 15.0948C11.7417 14.8681 11.6041 14.6621 11.4306 14.4886C11.2571 14.3151 11.0511 14.1775 10.8244 14.0836C10.5977 13.9898 10.3547 13.9416 10.1093 13.9417V13.9417ZM8.24114 36.3597H4.5048V17.6781H8.24114V36.3597ZM6.40034 0.0107914C5.58276 -0.0381482 4.76376 0.0797216 3.99316 0.357233C3.22256 0.634745 2.51646 1.0661 1.9178 1.62506C1.31913 2.18403 0.84042 2.85892 0.510769 3.6087C0.181118 4.35847 0.00741801 5.16747 0.000232446 5.98649C-0.00695312 6.8055 0.152526 7.61742 0.468971 8.37287C0.785416 9.12831 1.25221 9.8115 1.84098 10.3809C2.42974 10.9503 3.12817 11.3939 3.89378 11.6849C4.65939 11.9759 5.47619 12.1081 6.29451 12.0736H6.34742C7.16716 12.1222 7.98823 12.0033 8.76044 11.7239C9.53266 11.4446 10.2398 11.0107 10.8387 10.4488C11.4375 9.88694 11.9156 9.20886 12.2435 8.45599C12.5715 7.70313 12.7425 6.8913 12.7461 6.07012C12.7497 5.24894 12.5858 4.43564 12.2645 3.67993C11.9431 2.92422 11.4711 2.24197 10.8772 1.67485C10.2832 1.10774 9.57993 0.667685 8.81019 0.38157C8.04046 0.0954557 7.22046 -0.0307069 6.40032 0.0107914H6.40034ZM6.34743 8.33722H6.29451C5.97144 8.37645 5.64372 8.34615 5.33332 8.24835C5.02292 8.15054 4.73702 7.98751 4.4948 7.77016C4.25257 7.55282 4.05961 7.28619 3.92887 6.98817C3.79813 6.69014 3.73262 6.36761 3.73674 6.04219C3.73674 4.64835 4.78211 3.74711 6.40034 3.74711C6.72671 3.7036 7.05861 3.73054 7.37369 3.8261C7.68876 3.92167 7.97971 4.08364 8.22691 4.30112C8.47412 4.51859 8.67186 4.78652 8.8068 5.08685C8.94174 5.38718 9.01076 5.71294 9.0092 6.04219C9.0092 7.43601 7.96383 8.33722 6.34743 8.33722Z" fill="#1A3263"/>
</svg>
