<svg width="40" height="40" viewBox="0 0 40 40" fill="none" xmlns="http://www.w3.org/2000/svg">
<path fill-rule="evenodd" clip-rule="evenodd" d="M15.8819 10.903C15.5017 9.89204 15.0626 9.96418 14.7703 9.95311C14.4777 9.94231 14.2216 9.94766 13.8263 9.95409C13.4918 9.95954 12.944 10.0457 12.4663 10.5267C11.988 11.0069 10.6479 12.1617 10.5552 14.6093C10.4632 17.0564 12.1695 19.4881 12.4078 19.8285C12.6459 20.1701 15.6662 25.4745 20.6863 27.6561C25.7069 29.8371 25.7332 29.1723 26.6542 29.1236C27.576 29.0753 29.6654 28.0302 30.1273 26.8849C30.5891 25.7396 30.6262 24.7439 30.5086 24.5315C30.3911 24.3198 30.0622 24.1823 29.5702 23.9154C29.0777 23.648 26.66 22.3531 26.2066 22.1699C25.7529 21.9874 25.422 21.8924 25.0689 22.3778C24.7156 22.8619 23.7125 23.9465 23.4085 24.2678C23.1032 24.5893 22.8093 24.6191 22.3169 24.3509C21.8259 24.0841 20.23 23.4984 18.3796 21.7333C16.9398 20.3601 15.9947 18.6937 15.7208 18.1854C15.4467 17.6768 15.719 17.4172 15.9797 17.1793C16.2134 16.9644 16.5026 16.6167 16.7647 16.3356C17.0253 16.0545 17.1173 15.8508 17.2969 15.5246C17.4761 15.1992 17.4041 14.9057 17.2878 14.6522C17.1715 14.3988 16.2619 11.914 15.8819 10.903V10.903Z" fill="#1A3263"/>
<path d="M20.3627 2.85714C24.8492 2.85714 29.0661 4.58946 32.2361 7.735C35.4002 10.8746 37.1429 15.0476 37.1429 19.485C37.1429 23.922 35.4002 28.0948 32.2361 31.2346C29.0658 34.3804 24.849 36.1129 20.3627 36.1129C17.5229 36.1129 14.7163 35.3966 12.2461 34.0414L11.1731 33.4528L10.0068 33.8232L4.52 35.5663L6.24991 30.4637L6.6783 29.2002L5.98446 28.0606C4.41366 25.4804 3.58339 22.515 3.58339 19.485C3.58339 15.0476 5.32607 10.8746 8.49027 7.73491C11.6604 4.58946 15.8767 2.85714 20.3627 2.85714ZM20.3627 0C9.5183 0 0.72625 8.7233 0.72625 19.485C0.72625 23.1662 1.75589 26.6092 3.54402 29.5463L0 40L10.8718 36.5463C13.685 38.0896 16.9204 38.97 20.3627 38.97C31.2085 38.97 40 30.2454 40 19.485C40 8.7233 31.2085 0 20.3627 0Z" fill="#1A3263"/>
</svg>
